<?xml version="1.0" encoding="UTF-8" standalone="no"?>
<!DOCTYPE svg PUBLIC "-//W3C//DTD SVG 1.1//EN"
 "http://www.w3.org/Graphics/SVG/1.1/DTD/svg11.dtd">
<!-- Generated by graphviz version 2.40.1 (20161225.0304)
 -->
<!-- Title: G Pages: 1 -->
<svg width="356pt" height="486pt"
 viewBox="0.00 0.00 355.50 486.00" xmlns="http://www.w3.org/2000/svg" xmlns:xlink="http://www.w3.org/1999/xlink">
<g id="graph0" class="graph" transform="scale(1 1) rotate(0) translate(4 482)">
<title>G</title>
<polygon fill="#ffffff" stroke="transparent" points="-4,4 -4,-482 351.5,-482 351.5,4 -4,4"/>
<!-- A0 -->
<g id="node1" class="node">
<title>A0</title>
<polygon fill="none" stroke="#000000" points="158.6041,-458 104.3959,-458 104.3959,-422 158.6041,-422 158.6041,-458"/>
<text text-anchor="middle" x="131.5" y="-437" font-family="Helvetica,sans-Serif" font-size="10.00" fill="#000000">Diario</text>
</g>
<!-- A1 -->
<g id="node2" class="node">
<title>A1</title>
<polygon fill="none" stroke="#000000" points="101.5,-320 101.5,-352 162.5,-352 162.5,-320 101.5,-320"/>
<text text-anchor="start" x="113.3885" y="-333" font-family="Helvetica,sans-Serif" font-size="10.00" fill="#000000">Registro</text>
<polygon fill="none" stroke="#000000" points="101.5,-288 101.5,-320 162.5,-320 162.5,-288 101.5,-288"/>
<text text-anchor="start" x="111.1545" y="-301" font-family="Helvetica,sans-Serif" font-size="10.00" fill="#000000">data:date</text>
</g>
<!-- A0&#45;&gt;A1 -->
<g id="edge1" class="edge">
<title>A0&#45;&gt;A1</title>
<path fill="none" stroke="#000000" d="M131.5,-409.7022C131.5,-395.5067 131.5,-378.3446 131.5,-362.8488"/>
<polygon fill="none" stroke="#000000" points="131.5001,-409.7746 135.5,-415.7746 131.5,-421.7746 127.5,-415.7745 131.5001,-409.7746"/>
<polygon fill="#000000" stroke="#000000" points="131.5,-352.4441 136.0001,-362.444 131.5,-357.4441 131.5001,-362.4441 131.5001,-362.4441 131.5001,-362.4441 131.5,-357.4441 127.0001,-362.4441 131.5,-352.4441 131.5,-352.4441"/>
<text text-anchor="middle" x="139.9524" y="-367.5702" font-family="Helvetica,sans-Serif" font-size="10.00" fill="#000000">*</text>
</g>
<!-- A2 -->
<g id="node3" class="node">
<title>A2</title>
<polygon fill="none" stroke="#000000" points=".5,-206 .5,-238 85.5,-238 85.5,-206 .5,-206"/>
<text text-anchor="start" x="23.2735" y="-219" font-family="Helvetica,sans-Serif" font-size="10.00" fill="#000000">Refeicao</text>
<polygon fill="none" stroke="#000000" points=".5,-150 .5,-206 85.5,-206 85.5,-150 .5,-150"/>
<text text-anchor="start" x="16.885" y="-187" font-family="Helvetica,sans-Serif" font-size="10.00" fill="#000000">nome:string</text>
<text text-anchor="start" x="10.497" y="-175" font-family="Helvetica,sans-Serif" font-size="10.00" fill="#000000">horaInicio:time</text>
<text text-anchor="start" x="12.4465" y="-163" font-family="Helvetica,sans-Serif" font-size="10.00" fill="#000000"> horaFim:time</text>
</g>
<!-- A1&#45;&gt;A2 -->
<g id="edge2" class="edge">
<title>A1&#45;&gt;A2</title>
<path fill="none" stroke="#000000" d="M101.837,-278.0052C94.7509,-267.9732 87.098,-257.1387 79.7195,-246.6928"/>
<polygon fill="none" stroke="#000000" points="101.888,-278.0774 108.6168,-280.6704 108.8113,-287.8789 102.0825,-285.2859 101.888,-278.0774"/>
<polygon fill="#000000" stroke="#000000" points="73.8771,-238.4215 83.3221,-243.9932 76.7618,-242.5055 79.6465,-246.5894 79.6465,-246.5894 79.6465,-246.5894 76.7618,-242.5055 75.971,-249.1856 73.8771,-238.4215 73.8771,-238.4215"/>
</g>
<!-- A3 -->
<g id="node4" class="node">
<title>A3</title>
<polygon fill="none" stroke="#000000" points="103.5,-194 103.5,-226 159.5,-226 159.5,-194 103.5,-194"/>
<text text-anchor="start" x="113.1635" y="-207" font-family="Helvetica,sans-Serif" font-size="10.00" fill="#000000">Afericao</text>
<polygon fill="none" stroke="#000000" points="103.5,-162 103.5,-194 159.5,-194 159.5,-162 103.5,-162"/>
<text text-anchor="start" x="113.999" y="-175" font-family="Helvetica,sans-Serif" font-size="10.00" fill="#000000">valor:int</text>
</g>
<!-- A1&#45;&gt;A3 -->
<g id="edge3" class="edge">
<title>A1&#45;&gt;A3</title>
<path fill="none" stroke="#000000" d="M131.5,-275.7967C131.5,-262.9964 131.5,-249.0564 131.5,-236.3708"/>
<polygon fill="none" stroke="#000000" points="131.5001,-275.8789 135.5,-281.8789 131.5,-287.8789 127.5,-281.8788 131.5001,-275.8789"/>
<polygon fill="#000000" stroke="#000000" points="131.5,-226.0625 136.0001,-236.0624 131.5,-231.0625 131.5001,-236.0625 131.5001,-236.0625 131.5001,-236.0625 131.5,-231.0625 127.0001,-236.0625 131.5,-226.0625 131.5,-226.0625"/>
</g>
<!-- A4 -->
<g id="node5" class="node">
<title>A4</title>
<polygon fill="none" stroke="#000000" points="178.5,-200 178.5,-232 239.5,-232 239.5,-200 178.5,-200"/>
<text text-anchor="start" x="197.3315" y="-213" font-family="Helvetica,sans-Serif" font-size="10.00" fill="#000000">Dose</text>
<polygon fill="none" stroke="#000000" points="178.5,-156 178.5,-200 239.5,-200 239.5,-156 178.5,-156"/>
<text text-anchor="start" x="190.384" y="-181" font-family="Helvetica,sans-Serif" font-size="10.00" fill="#000000">basal:int</text>
<text text-anchor="start" x="188.44" y="-169" font-family="Helvetica,sans-Serif" font-size="10.00" fill="#000000">rapida:int</text>
</g>
<!-- A1&#45;&gt;A4 -->
<g id="edge4" class="edge">
<title>A1&#45;&gt;A4</title>
<path fill="none" stroke="#000000" d="M157.4304,-277.5684C164.6275,-265.7914 172.4828,-252.9372 179.8269,-240.9196"/>
<polygon fill="none" stroke="#000000" points="157.387,-277.6395 157.6714,-284.845 151.1296,-287.8789 150.8452,-280.6734 157.387,-277.6395"/>
<polygon fill="#000000" stroke="#000000" points="185.0675,-232.3441 183.6927,-243.2235 182.4602,-236.6105 179.8529,-240.877 179.8529,-240.877 179.8529,-240.877 182.4602,-236.6105 176.0132,-238.5304 185.0675,-232.3441 185.0675,-232.3441"/>
</g>
<!-- A5 -->
<g id="node6" class="node">
<title>A5</title>
<polygon fill="none" stroke="#000000" points="128.5,-68 128.5,-100 216.5,-100 216.5,-68 128.5,-68"/>
<text text-anchor="start" x="153.054" y="-81" font-family="Helvetica,sans-Serif" font-size="10.00" fill="#000000">Alimento</text>
<polygon fill="none" stroke="#000000" points="128.5,0 128.5,-68 216.5,-68 216.5,0 128.5,0"/>
<text text-anchor="start" x="146.385" y="-49" font-family="Helvetica,sans-Serif" font-size="10.00" fill="#000000">nome:string</text>
<text text-anchor="start" x="157.773" y="-37" font-family="Helvetica,sans-Serif" font-size="10.00" fill="#000000">cho:int</text>
<text text-anchor="start" x="141.097" y="-25" font-family="Helvetica,sans-Serif" font-size="10.00" fill="#000000">quantidade:int</text>
<text text-anchor="start" x="138.3265" y="-13" font-family="Helvetica,sans-Serif" font-size="10.00" fill="#000000">medida:Medida</text>
</g>
<!-- A2&#45;&gt;A5 -->
<g id="edge5" class="edge">
<title>A2&#45;&gt;A5</title>
<path fill="none" stroke="#000000" d="M90.9315,-140.3528C100.9378,-129.2689 111.5054,-117.5632 121.5968,-106.3851"/>
<polygon fill="none" stroke="#000000" points="90.6063,-140.713 89.5548,-147.8471 82.565,-149.6203 83.6166,-142.4862 90.6063,-140.713"/>
<polygon fill="#000000" stroke="#000000" points="128.4943,-98.7448 125.1335,-109.183 125.1438,-102.4561 121.7932,-106.1675 121.7932,-106.1675 121.7932,-106.1675 125.1438,-102.4561 118.453,-103.152 128.4943,-98.7448 128.4943,-98.7448"/>
<text text-anchor="middle" x="122.6218" y="-114.8632" font-family="Helvetica,sans-Serif" font-size="10.00" fill="#000000">*</text>
</g>
<!-- A6 -->
<g id="node7" class="node">
<title>A6</title>
<polygon fill="none" stroke="#000000" points="177.5,-446 177.5,-478 278.5,-478 278.5,-446 177.5,-446"/>
<text text-anchor="start" x="187.427" y="-459" font-family="Helvetica,sans-Serif" font-size="10.00" fill="#000000">&lt;&lt;enum&gt;&gt;Medida</text>
<polygon fill="none" stroke="#000000" points="177.5,-402 177.5,-446 278.5,-446 278.5,-402 177.5,-402"/>
<text text-anchor="start" x="209.6675" y="-427" font-family="Helvetica,sans-Serif" font-size="10.00" fill="#000000">GRAMA</text>
<text text-anchor="start" x="207.168" y="-415" font-family="Helvetica,sans-Serif" font-size="10.00" fill="#000000">COLHER</text>
</g>
<!-- A7 -->
<g id="node8" class="node">
<title>A7</title>
<polygon fill="none" stroke="#000000" points="257.5,-194 257.5,-226 347.5,-226 347.5,-194 257.5,-194"/>
<text text-anchor="start" x="290.5525" y="-207" font-family="Helvetica,sans-Serif" font-size="10.00" fill="#000000">Prato</text>
<polygon fill="none" stroke="#000000" points="257.5,-162 257.5,-194 347.5,-194 347.5,-162 257.5,-162"/>
<text text-anchor="start" x="267.496" y="-175" font-family="Helvetica,sans-Serif" font-size="10.00" fill="#000000">descricao:string</text>
</g>
<!-- A7&#45;&gt;A5 -->
<g id="edge6" class="edge">
<title>A7&#45;&gt;A5</title>
<path fill="none" stroke="#000000" d="M265.1918,-152.674C252.175,-138.2554 237.3359,-121.8183 223.4045,-106.3865"/>
<polygon fill="none" stroke="#000000" points="265.2842,-152.7763 272.2739,-154.5495 273.3255,-161.6836 266.3357,-159.9104 265.2842,-152.7763"/>
<polygon fill="#000000" stroke="#000000" points="216.6502,-98.9049 226.6915,-103.3121 220.0008,-102.6162 223.3513,-106.3276 223.3513,-106.3276 223.3513,-106.3276 220.0008,-102.6162 220.0111,-109.3431 216.6502,-98.9049 216.6502,-98.9049"/>
<text text-anchor="middle" x="235.0705" y="-103.6954" font-family="Helvetica,sans-Serif" font-size="10.00" fill="#000000">*</text>
</g>
</g>
</svg>
